<svg xmlns="http://www.w3.org/2000/svg" version="1.1" xmlns:xlink="http://www.w3.org/1999/xlink" width="23" height="23"><svg width="23" height="23" viewBox="0 0 23 23" fill="none" xmlns="http://www.w3.org/2000/svg">
<path d="M6.28385 7.54857C7.10539 7.54857 7.77154 8.21271 7.77154 9.03175V13.637C7.77154 13.9759 8.04692 14.2505 8.38692 14.2505H11.3838C13.0831 14.2505 14.4608 15.624 14.4608 17.3181V21.3849C14.4608 21.7239 14.1854 21.9985 13.8454 21.9985H7.23769C6.89769 21.9985 6.62231 21.7239 6.62231 21.3849V15.976C6.62231 15.637 6.34692 15.3625 6.00692 15.3625H0.615385C0.275385 15.3625 0 15.0879 0 14.749V8.16132C0 7.82236 0.275385 7.54781 0.615385 7.54781H6.28385V7.54857Z" fill="#3B72C9"></path>
<path d="M15.7161 14.4507C14.8946 14.4507 14.2284 13.7865 14.2284 12.9675V8.36149C14.2284 8.02252 13.953 7.74797 13.613 7.74797H10.6161C8.91688 7.74797 7.53918 6.37446 7.53918 4.68038V0.613518C7.53918 0.274549 7.81457 0 8.15457 0H14.7623C15.1023 0 15.3776 0.274549 15.3776 0.613518V6.02245C15.3776 6.36142 15.653 6.63597 15.993 6.63597H21.3853C21.7253 6.63597 22.0007 6.91052 22.0007 7.24949V13.8371C22.0007 14.1761 21.7253 14.4507 21.3853 14.4507H15.7169H15.7161Z" fill="#3B72C9"></path>
</svg><style>@media (prefers-color-scheme: light) { :root { filter: none; } }
@media (prefers-color-scheme: dark) { :root { filter: none; } }
</style></svg>